HIERARCHY
ROOT Hips
{
  OFFSET 0.0 0.0 0.0
  CHANNELS 6 XPOSITION YPOSITION ZPOSITION ZROTATION XROTATION YROTATION 
  JOINT LeftUpLeg
  {
    OFFSET 0.08945800000000001 -0.0866707 0.0010165200000000001
    CHANNELS 3 ZROTATION XROTATION YROTATION 
    JOINT LeftLeg
    {
      OFFSET 0.0 -0.444227 0.013727000000000001
      CHANNELS 3 ZROTATION XROTATION YROTATION 
      JOINT LeftFoot
      {
        OFFSET -0.0025354900000000005 -0.42092399999999996 -0.014605900000000002
        CHANNELS 3 ZROTATION XROTATION YROTATION 
        End Site
        {
          OFFSET -0.0004 -0.0441509 0.08499100000000001
        }
      }
    }
  }
  JOINT Spine
  {
    OFFSET 0.0 0.118905 0.0
    CHANNELS 3 ZROTATION XROTATION YROTATION 
    JOINT Spine1
    {
      OFFSET 0.0 0.25657399999999997 0.00127663
      CHANNELS 3 ZROTATION XROTATION YROTATION 
      End Site
      {
        OFFSET -0.0029 0.21508359999999999 0.02525291
      }
      JOINT RightArm
      {
        OFFSET -0.162727 -0.05365632 0.0010212299999999997
        CHANNELS 3 ZROTATION XROTATION YROTATION 
        JOINT RightForeArm
        {
          OFFSET -0.26364 0.00099144 -0.0142434
          CHANNELS 3 ZROTATION XROTATION YROTATION 
          End Site
          {
            OFFSET -0.220324 0.0008536199999999999 0.010221599999999999
          }
        }
      }
      JOINT LeftArm
      {
        OFFSET 0.162727 -0.053656319900000006 0.0010212299999999997
        CHANNELS 3 ZROTATION XROTATION YROTATION 
        JOINT LeftForeArm
        {
          OFFSET 0.26259699999999997 0.00099144 -0.0142434
          CHANNELS 3 ZROTATION XROTATION YROTATION 
          End Site
          {
            OFFSET 0.220902 0.0008536199999999999 0.010221599999999999
          }
        }
      }
    }
  }
  JOINT RightUpLeg
  {
    OFFSET -0.08945800000000001 -0.0866707 0.0010165200000000001
    CHANNELS 3 ZROTATION XROTATION YROTATION 
    JOINT RightLeg
    {
      OFFSET 0.0 -0.444227 0.013727000000000001
      CHANNELS 3 ZROTATION XROTATION YROTATION 
      JOINT RightFoot
      {
        OFFSET 0.0025354900000000005 -0.42092399999999996 -0.014605900000000002
        CHANNELS 3 ZROTATION XROTATION YROTATION 
        End Site
        {
          OFFSET 0.0004 -0.0441509 0.08499100000000001
        }
      }
    }
  }
}
MOTION
Frames: 13
Frame Time: 0.033333
-0.151978 0.9646258376523148 -0.0668731 10.020499668113068 -0.8169760020981501 -85.98699998971804 1.2506600373868735 -28.98820051684246 2.1321099303204765 1.4874900166678955 64.92400115553019 8.495290251918895 -14.316436792825444 -18.02525854044634 -0.7607068226423224 10.488000503591053 7.801579527545611 -1.5677499687791285 -5.862540048597766 3.6035903037389794 0.12399900279232705 77.34616182168077 -19.117477505717666 12.744193840232917 6.441350342545333 14.70970030221456 26.109999781734107 -74.03347226290039 2.0249406337049796 4.585651978076338 -5.8709300822194805 18.555100220026326 -38.83059873347921 3.3115399525656963 -22.45710020794269 9.66795945410286 -1.517650104330262 48.71529972674045 -19.061801218698307 5.919791547994459 -34.39749177343912 0.9371422949305348 
-0.19890000000000002 0.9932628376523147 -0.0687564 8.063979173758222 -2.491479906613874 -83.09199698925146 0.6284140091862561 -26.74330175176686 3.2197099801655793 1.4871100873953136 65.12989720806023 8.916019659507924 -13.76203460676374 -2.5524365701918876 1.0543752349578106 8.160930293931967 2.7847902142456125 -0.7590759548954232 -5.886219887563377 5.791109930257773 0.7342239914352144 76.70039475641273 -19.02135966862266 8.707931116254317 5.325970205798496 17.45620132974673 29.62709982690004 -70.96962698615108 1.9790567035213034 7.456174299897127 -2.4141499989348705 22.550299846714807 -51.84480019688649 0.02770330063442461 -13.814100285033101 5.419209971931986 -1.221249989872739 41.58580142201398 -16.931400329774213 7.963109232548181 -30.45334098060731 1.0629563004328737 
-0.246407 1.0282468376523148 -0.0685854 5.419009762011941 -3.525629884222219 -80.4532968373896 0.46927401661954404 -23.045901787985517 4.048680007889684 1.5192099487819637 62.40390040841644 11.686900193508807 -12.198252551005567 9.933990199632978 2.1991851627343517 6.60041989878623 -0.8511450372773439 -0.3881709897130639 -6.1692300564833245 7.597719725161887 1.1979499734580041 76.15266139630191 -18.248911377271117 5.355988033427056 4.427600120021773 19.17830034027663 32.20640123864488 -68.58561092806067 2.4306075531834277 9.439737220723346 -1.06889995239296 23.400999907839896 -61.485499512238185 -1.6376499113016276 -5.903150218968546 2.1612099512793157 -1.044469966557411 36.12170131242255 -15.180399373771404 11.524926526210185 -19.760396382101796 0.590703414200705 
-0.289009 1.063422837652315 -0.06570140000000001 3.0303099016981836 -3.5224700679574417 -79.5728991137533 0.8340589455425867 -19.327200171730198 4.569519925030414 1.5236698488665703 57.92299578456459 13.87149863349695 -10.52562460063407 11.308093633271667 2.006452805725636 7.240690369319688 -2.416569806891759 -0.008919580055695353 -7.849680281001779 8.307059629903453 1.858929897720058 75.96790477925306 -18.20050924171782 3.4692940570611306 3.7857800503203687 20.330100753225267 34.90109869641709 -67.09779082115679 1.7014987331063183 11.331249682105303 -3.7109198963565597 22.527000363908602 -67.65189674776325 -2.0879401641750617 -2.777910079317294 0.02380469835879542 -0.9587850299761896 36.21340001712456 -13.436600852248374 12.85163442342451 -3.484129014494987 -0.9960453127241958 
-0.32412399999999997 1.0901728376523148 -0.0623431 1.7089299789232921 -3.309640092759375 -80.16610104316891 0.49023095798384725 -17.586900414609506 3.9315896480613315 1.3395500402361233 53.40170083705588 13.704999112099548 -10.239618966876247 2.5682712965655043 1.201421950712192 8.237750285300747 -1.7048700717919543 0.5264629770966492 -10.066600029916069 7.544950537408014 2.5312999094750483 75.80429442787458 -19.114019722450344 2.5298222407367983 3.1176699421733507 21.39409908439339 38.61140088754058 -66.70270535880657 0.13336265853588564 12.977028158849482 -7.979099559168827 21.643201206065633 -71.0805970695963 -2.616629889662841 -5.240240232657435 -0.6954220069254894 -0.9204210313469916 41.678702240009905 -10.880200211016941 11.180448496741532 9.34777896883288 -2.082205793480013 
-0.353735 1.1041828376523148 -0.06028940000000001 1.0326500040335866 -3.4724498179010883 -80.7936998052447 -1.0165899881390654 -17.587600508999433 1.4059600762578632 1.1734099575437944 48.69220002696746 13.742499411963857 -11.431818241218219 -8.882639671260426 0.30033200890277606 7.45592072912419 1.147150014619211 0.71567800012622 -10.343099747896526 5.823590041082122 2.613940075790325 75.3583377165861 -19.891896306644757 2.4755414467422376 2.553449999509988 22.14910136505743 42.62640123263293 -67.34992042417865 -1.5405776619918197 13.938444732646829 -10.091000026952294 21.485900241932946 -73.02060302031168 -3.3001301215571903 -10.255699793503396 -0.6408120298294457 -1.0229700251540919 48.34489856805065 -9.346960199906125 9.052713942914682 11.29359570298467 -1.839918279608739 
-0.37985100000000005 1.1096728376523148 -0.05916470000000001 0.08216480115729975 -3.799860058407527 -80.71720168654056 -3.001749892570598 -17.746598775140868 -2.445319994099047 1.1498099464141078 42.88419989266589 15.958200825884946 -11.628266434578832 -17.03896044127628 -0.4898583925089642 5.531359970556303 5.686059913275684 0.36022799212745416 -8.327900244608454 3.8492098827081613 2.002179882069558 74.81043360174603 -20.161202127881896 3.703510421767565 2.3734000231295167 22.412700563243025 45.749901381593126 -68.4474362011513 -3.0380564034340356 14.169845565311338 -10.04920012300546 21.680099595509333 -74.19480133109609 -4.056749876394053 -14.681599196421836 -0.8840429635798276 -1.0823499822508902 50.87770005192605 -10.385200180166837 8.13033787663948 6.047841800119742 -1.3031657292491712 
-0.402343 1.107312837652315 -0.0581191 -0.954620962460009 -3.8687002543916162 -80.32120097884156 -4.480760336105629 -18.2506001415434 -5.886029922927086 1.1809099321392915 36.769100792902215 18.39069927425141 -10.50842959939856 -22.311997961667647 -0.9234809560951572 4.510469951447892 11.03620002411274 -0.16832300848302234 -6.857100115342601 1.8682300540486765 1.3683599915986489 74.52008226012877 -20.69761103434885 5.787973165881444 2.4819400533340703 22.39990078873842 47.902199856996276 -69.13430734484447 -4.064786020839397 13.523057386762396 -10.309199811498459 21.64869950834749 -74.24669710840985 -4.732969766963404 -18.186999127539536 -0.97515902112912 -1.1050600410760654 47.57869819224238 -12.221000496036293 8.415038090492184 0.5607405482506227 -0.9941485478473422 
-0.424743 1.096402837652315 -0.0557989 -1.2824100650219719 -3.0386800850826226 -80.1820017235567 -4.660390042408733 -19.868700984223395 -7.842480407842939 1.1356300468103384 30.685198582172564 18.60219949699544 -10.31511731664063 -27.276106025899338 -1.3637373409127254 6.277059960457608 15.612799867104695 -0.7106769676324484 -8.046039681903183 0.044458798540150564 1.4480799318786277 74.57275667900791 -22.11794204206383 7.5874394366873705 2.55119006066836 22.405499836310536 49.59180082745526 -68.80411550979855 -3.9728516746110247 11.857682243515805 -11.579399846161976 21.20200001398678 -72.83469893148228 -4.362259969100492 -21.685498860048227 0.648391031848074 -1.0421099227557602 40.62270035281258 -13.472299689719092 7.365157760338476 -3.5655894790745557 -0.6547037274667525 
-0.45130800000000004 1.0741228376523149 -0.0528821 -0.9017889156214315 -1.8204099786787131 -80.74590214143295 -4.184559791237917 -22.34560078483682 -8.574809875557122 1.4094299190779354 25.387999267592278 17.076999472311375 -11.079128616819915 -31.08309808246083 -1.849165928858113 9.385350131909828 18.417900502620984 -1.0481400192975294 -10.985099963837289 -0.9650410563690982 2.3191501784296324 74.81345254535917 -23.88340421608685 8.935655599598066 2.657999918578785 22.355798257267647 50.38400031833918 -67.57208598731165 -2.815298107947121 9.780467183884957 -12.817900119113817 20.554600533507124 -70.74779610228741 -3.021749967120865 -25.411899807045444 5.323320092400531 -0.99388398473871 33.77010133213302 -14.776598590040251 5.07806806298606 -9.364782724771626 -0.26294654159388814 
-0.480845 1.039232837652315 -0.0522482 -0.9776820289754993 -1.6880901112702313 -81.35919848738673 -4.702839668100362 -25.34009915094298 -9.222330591894549 2.0931701680885872 24.9973004942365 16.622699684951733 -10.309531929446852 -29.839190861007275 -1.6040888163194178 9.954200729387047 20.369999303261896 -1.0347300100792671 -12.813800298064516 -0.889257973093691 3.130239838123701 75.31231590195856 -24.8540560594157 11.238780019800732 3.0327700504598574 22.047000282249492 49.05849965706066 -66.48065590888946 -2.0122650832659055 7.799148833974733 -13.575700216016623 19.8920004670296 -68.53489677347332 -2.4273198843151245 -28.978600685964008 10.859299832156701 -1.052809947699114 31.42390061638237 -16.2365002987117 4.01653671076878 -14.944100441698351 -0.07219931503441314 
-0.508018 0.9983708376523147 -0.054814800000000004 -2.430750133382352 -2.960939939166595 -80.67189704177586 -6.687130004073188 -28.895299698846532 -11.675499754010408 0.9862849724002477 32.41270027233595 19.38620105332806 -7.12585397191744 -22.623662908589914 -0.6360800427559492 7.338469649930297 23.005600256787858 -1.1038399985355718 -12.021199533566849 -0.19196400074772899 2.889479938748983 76.28048155642952 -24.607986541734945 15.481882216188476 3.125149853088161 21.79329973571854 45.206201248187185 -66.73847505948993 -2.564048105224321 4.60127304759498 -13.647500018345443 18.956300409230995 -64.34859869909164 -3.6074399691099277 -32.228797428933355 11.994500324101269 -1.0345400454429763 36.55900075893803 -15.872000423464801 4.043091632488143 -16.073803485134704 -0.04402212333557262 
-0.532592 0.9581768376523148 -0.0577267 -4.637899937019173 -4.331839587197725 -78.56429873939585 -8.328689985231236 -32.73749967303215 -9.926160241523206 1.2048800541446283 44.48569825302088 16.51150079016934 -3.6707639335655853 -15.418702966365856 -0.05205433241801506 5.337840220802332 26.05690018357914 -1.5272399033683715 -10.384900505617003 0.9005290658846815 1.9502301035726761 77.41119888295762 -23.60074366747504 20.22657557597538 2.3005298020917087 22.283300921869838 39.63680011216167 -68.60221511793297 -3.0376150024589235 -1.8085570391478023 -12.426400506077856 17.294100450174817 -55.02540072730799 -5.679609653378253 -35.0352982532295 8.28170938279895 -1.126109937046104 47.25709873517233 -13.394499566204416 4.164161004394851 -14.556200338354987 -0.08600709606044266 
